#vertices
v 1.000000 -1.000000 -40.000000
v 1.000000 -1.000000 -38.000000
v -1.000000 -1.000000 -38.000000
v -1.000000 -1.000000 -40.000000
v 1.000000 1.000000 -40.000000
v 1.000000 1.000000 -38.000000
v -1.000000 1.000000 -38.000000
v -1.000000 1.000000 -40.000000

#UV coordinates
vt 0.748573 0.750412
vt 0.749279 0.501284
vt 0.999110 0.501077
vt 0.999455 0.750380
vt 0.250471 0.500702
vt 0.249682 0.749677
vt 0.001085 0.750380
vt 0.001517 0.499994
vt 0.499422 0.500239
vt 0.500149 0.750166
vt 0.748355 0.998230
vt 0.500193 0.998728
vt 0.498993 0.250415
vt 0.748953 0.250920

#normals
vn 0.000000 0.000000 -1.000000
vn -1.000000 0.000000 0.000000
vn 0.000000 0.000000 1.000000
vn 0.000000 0.000000 1.000000
vn 1.000000 0.000000 0.000000
vn 1.000000 0.000000 0.000000
vn 0.000000 1.000000 0.000000
vn 0.000000 -1.000000 0.000000

#faces (index data)
# format: vertex/Uvcoordinate/normal
f 5//1 1//1 4//1
f 5//1 4//1 8//1
f 3//2 7//2 8//2
f 3//2 8//2 4//2
f 2//3 6//3 3//3
f 6//4 7//4 3//4
f 1//5 5//5 2//5
f 5//6 6//6 2//6
f 5//7 8//7 6//7
f 8//7 7//7 6//7
f 1//8 2//8 3//8
f 1//8 3//8 4//8

